# xmcd
#
# Track frame offsets: 
#        150
#        24806
#        43300
#        62904
#        80934
#        100801
#        126444
#        147812
#        167280
#        187202
#        206735
#        232356
#
# Disc length: 3337 seconds
#
# Revision: 2
# Processed by: cddbd v1.5.2PL0 Copyright (c) Steve Scherf et al.
# Submitted via: ExactAudioCopy v0.99pb3
#
DISCID=b40d070c
DTITLE=Various Artist - Half-Gifts: A Tribute to the Cocteau Twins
DYEAR=2002
DGENRE=Dreampop
TTITLE0=Trance to the Sun - When Mama Was Moth
TTITLE1=Translucia - Crushed
TTITLE2=An April March - Pink Orange Red
TTITLE3=Numeralia - Oomingmak
TTITLE4=Sugar Hiccup - Sugar Hiccup
TTITLE5=Bethany Curve - Ivo
TTITLE6=Siddal - Watchlar
TTITLE7=Subdew - Great Spangles Fritillary
TTITLE8=Neil Implelluso - Ribbed and Veined
TTITLE9=Halou - Half-Gifts
TTITLE10=The Von Trapps - Need Fire
TTITLE11=Pumalin - Cherry Coloured Funk
EXTD=YEAR: 2002
EXTT0=
EXTT1=
EXTT2=
EXTT3=
EXTT4=
EXTT5=
EXTT6=
EXTT7=
EXTT8=
EXTT9=
EXTT10=
EXTT11=
PLAYORDER=
